<svg xmlns="http://www.w3.org/2000/svg" width="667" height="667" viewBox="0 0 667 667"><g transform="translate(-2447 -3523)"><path d="M0,466.8s261.205-33.13,391-147.423S667,0,667,0V667H0Z" transform="translate(2447 3523)" fill="#d9eafc"/><g transform="translate(2528 3604.119)" opacity="0.71"><path d="M242.916,332.294A76.008,76.008,0,1,0,207.19,189.2a7.5,7.5,0,1,0,7.06,13.234,61.078,61.078,0,1,1-21.43,19.054,7.5,7.5,0,0,0-12.31-8.57,75.994,75.994,0,0,0,62.406,119.381Z"/><path d="M242.917,302.294a46.008,46.008,0,1,0-46.009-46.008,46.06,46.06,0,0,0,46.009,46.008Zm0-77.016a31.008,31.008,0,1,1-31.009,31.008,31.043,31.043,0,0,1,31.009-31.008Z"/><path d="M242.917,163.618a22.346,22.346,0,1,0-22.347-22.346,22.371,22.371,0,0,0,22.347,22.346Zm0-29.692a7.346,7.346,0,1,1-7.347,7.346A7.354,7.354,0,0,1,242.917,133.926Z"/><path d="M357.931,278.632a22.346,22.346,0,1,0-22.346-22.346,22.372,22.372,0,0,0,22.346,22.346Zm0-29.692a7.346,7.346,0,1,1-7.346,7.346,7.355,7.355,0,0,1,7.346-7.346Z"/><path d="M242.917,348.955A22.346,22.346,0,1,0,265.263,371.3a22.372,22.372,0,0,0-22.346-22.346Zm0,29.692a7.346,7.346,0,1,1,7.346-7.346A7.355,7.355,0,0,1,242.917,378.647Z"/><path d="M150.248,256.286A22.347,22.347,0,1,0,127.9,278.632,22.371,22.371,0,0,0,150.248,256.286ZM127.9,263.632a7.346,7.346,0,1,1,7.346-7.346A7.355,7.355,0,0,1,127.9,263.632Z"/><path d="M158.245,187.236a7.481,7.481,0,0,0,5.513-2.413l6.362-6.893A7.5,7.5,0,0,0,159.1,167.756l-6.362,6.893a7.5,7.5,0,0,0,5.509,12.587Z"/><path d="M321.273,183.49a7.5,7.5,0,1,0,10.174-11.022l-6.894-6.362a7.5,7.5,0,1,0-10.174,11.022Z"/><path d="M159.1,344.817a7.5,7.5,0,0,0,11.022-10.174l-6.362-6.893a7.5,7.5,0,1,0-11.022,10.174Z"/><path d="M321.273,329.082l-6.894,6.363a7.5,7.5,0,1,0,10.174,11.022l6.894-6.363a7.5,7.5,0,0,0-10.174-11.022Z"/><path d="M490.482,172.935A49.383,49.383,0,0,0,446.163,92.3,259.616,259.616,0,0,0,316.134,5.546,16.413,16.413,0,0,0,295.3,19.054a244.133,244.133,0,0,0-52.387-5.682A242.915,242.915,0,0,0,71.148,428.054a242.977,242.977,0,0,0,399.478-87.035,16.43,16.43,0,0,0,22.655-10.212,262.341,262.341,0,0,0-2.8-157.872ZM377.606,440.159A227.922,227.922,0,0,1,81.755,95.125,226.423,226.423,0,0,1,242.916,28.37a228.99,228.99,0,0,1,52.214,6.024V94.723A169.125,169.125,0,0,0,242.916,86.5c-93.622,0-169.789,76.167-169.789,169.79A169.416,169.416,0,0,0,117,370.182a7.5,7.5,0,1,0,11.121-10.066,154.443,154.443,0,0,1-39.99-103.828c0-85.351,69.438-154.79,154.789-154.79s154.79,69.438,154.79,154.79-69.438,154.79-154.79,154.79a153.512,153.512,0,0,1-92.15-30.414,7.5,7.5,0,0,0-8.939,12.045,168.411,168.411,0,0,0,101.09,33.369c75.83,0,140.2-49.971,161.934-118.71l19.024,9.74.043.022,33.248,17.023a226.992,226.992,0,0,1-79.56,106.006ZM478.9,326.534a1.375,1.375,0,0,1-.8.894,1.411,1.411,0,0,1-1.234-.042l-40.6-20.789a199.721,199.721,0,0,0,5.067-26.909,7.5,7.5,0,1,0-14.9-1.751,184.627,184.627,0,0,1-3.874,21.644L408.8,292.535a169.778,169.778,0,0,0,3.908-36.249c0-69.758-42.291-129.815-102.576-155.9V84.158A185.214,185.214,0,0,1,427.477,247.214a7.5,7.5,0,0,0,7.485,7.136c.122,0,.246,0,.37-.009a7.5,7.5,0,0,0,7.127-7.855A200.168,200.168,0,0,0,310.13,68.152V21.342a1.414,1.414,0,0,1,.587-1.168,1.344,1.344,0,0,1,1.219-.229,244.866,244.866,0,0,1,125.225,85.136,7.492,7.492,0,0,0,7.608,2.694,34.382,34.382,0,0,1,42.2,33.5,34.142,34.142,0,0,1-10.3,24.531,7.5,7.5,0,0,0-1.809,7.867,247.272,247.272,0,0,1,4.04,152.865Z"/><path d="M452.569,120.732a20.54,20.54,0,1,0,20.54,20.54A20.563,20.563,0,0,0,452.569,120.732Zm0,26.08a5.54,5.54,0,1,1,5.54-5.54A5.546,5.546,0,0,1,452.569,146.812Z"/><path d="M341.347,45.391l-4.085-1.86a7.5,7.5,0,1,0-6.217,13.651l4.085,1.86a7.5,7.5,0,0,0,6.217-13.651Z"/><path d="M465.782,279.989a7.5,7.5,0,0,0-8.72,6.038l-1.168,6.426a7.5,7.5,0,1,0,14.758,2.683l1.168-6.426a7.5,7.5,0,0,0-6.038-8.721Z"/></g></g></svg>